<svg width="24" height="24" viewBox="0 0 24 24" fill="none" xmlns="http://www.w3.org/2000/svg">
<path d="M17.75 10.1786L12.6071 15.3214C12.2857 15.6429 11.7143 15.6429 11.3929 15.3214L6.25 10.1786C6 9.92857 5.92857 9.57143 6.07143 9.25C6.21429 8.92857 6.5 8.71429 6.85714 8.71429H9.71429V4.71429C9.71429 3.78571 10.5 3 11.4286 3H12.5714C13.5357 3 14.2857 3.78571 14.2857 4.71429V8.71429H17.1429C17.5 8.71429 17.8214 8.92857 17.9286 9.25C18.0714 9.57143 18 9.92857 17.75 10.1786ZM7.53571 9.85714L12 14.3214L16.4643 9.85714H13.7143C13.3929 9.85714 13.1429 9.60714 13.1429 9.28571V4.71429C13.1429 4.39286 12.8929 4.14286 12.5714 4.14286H11.4286C11.1071 4.14286 10.8571 4.39286 10.8571 4.71429V9.28571C10.8571 9.60714 10.6071 9.85714 10.2857 9.85714H7.53571ZM5.14286 15V17.8571C5.14286 19.1071 6.17857 20.1429 7.42857 20.1429H16.5714C17.8214 20.1429 18.8571 19.1071 18.8571 17.8571V15C18.8571 14.6786 19.1071 14.4286 19.4286 14.4286C19.75 14.4286 20 14.6786 20 15V17.8571C20 19.75 18.4643 21.2857 16.5714 21.2857H7.42857C5.53571 21.2857 4 19.75 4 17.8571V15C4 14.6786 4.25 14.4286 4.57143 14.4286C4.89286 14.4286 5.14286 14.6786 5.14286 15Z" fill="black"/>
</svg>
