<svg width="20" height="20" viewBox="0 0 20 20" fill="none" xmlns="http://www.w3.org/2000/svg">
<path d="M16.5 1.375H2.75C1.97656 1.375 1.375 1.97656 1.375 2.75V16.5C1.375 17.2734 1.97656 17.875 2.75 17.875H16.5C17.2734 17.875 17.875 17.2734 17.875 16.5V2.75C17.875 1.97656 17.2734 1.375 16.5 1.375ZM2.75 0H16.5C18.0039 0 19.25 1.24609 19.25 2.75V16.5C19.25 18.0039 18.0039 19.25 16.5 19.25H2.75C1.24609 19.25 0 18.0039 0 16.5V2.75C0 1.24609 1.24609 0 2.75 0ZM5.5 6.1875C5.88672 6.1875 6.1875 5.88672 6.1875 5.5C6.1875 5.11328 5.88672 4.8125 5.5 4.8125C5.11328 4.8125 4.8125 5.11328 4.8125 5.5C4.8125 5.88672 5.11328 6.1875 5.5 6.1875ZM3.4375 5.5C3.4375 4.33984 4.33984 3.4375 5.5 3.4375C6.66016 3.4375 7.5625 4.33984 7.5625 5.5C7.5625 6.66016 6.66016 7.5625 5.5 7.5625C4.33984 7.5625 3.4375 6.66016 3.4375 5.5ZM10.6992 8.07812L8.76562 11.0859C8.63672 11.3008 8.42188 11.3867 8.20703 11.4297C7.94922 11.4297 7.73438 11.3008 7.60547 11.1289L7.17578 10.4844C7.08984 10.3555 7.00391 10.3125 6.875 10.3125C6.74609 10.3125 6.66016 10.3555 6.57422 10.4844L4.16797 13.9219C4.125 14.0078 4.125 14.1367 4.16797 14.2656C4.21094 14.3516 4.33984 14.4375 4.46875 14.4375H14.7812C14.9102 14.4375 15.0391 14.3945 15.082 14.2656C15.125 14.1367 15.125 14.0078 15.082 13.9219L11.3008 8.07812C11.2148 7.94922 11.1289 7.90625 11 7.90625C10.8711 7.90625 10.7852 7.94922 10.6992 8.07812ZM11 6.53125C11.6016 6.53125 12.1172 6.83203 12.4609 7.30469L16.2422 13.1484C16.5859 13.707 16.5859 14.3516 16.2852 14.9102C15.9844 15.4688 15.4258 15.8125 14.7812 15.8125H4.46875C3.82422 15.8125 3.22266 15.4688 2.92188 14.9102C2.66406 14.3086 2.70703 13.6211 3.05078 13.1055L5.45703 9.66797C5.80078 9.19531 6.31641 8.9375 6.875 8.9375C7.34766 8.9375 7.82031 9.15234 8.16406 9.49609L9.53906 7.30469C9.88281 6.83203 10.3984 6.53125 11 6.53125Z" fill="black"/>
</svg>
