<svg width="22" height="22" viewBox="0 0 22 22" fill="none" xmlns="http://www.w3.org/2000/svg">
<path d="M12.375 1.375C12.375 2.14844 11.7734 2.75 11 2.75C10.2266 2.75 9.625 2.14844 9.625 1.375C9.625 0.601562 10.2266 0 11 0C11.7734 0 12.375 0.601562 12.375 1.375ZM12.375 20.625C12.375 21.3984 11.7734 22 11 22C10.2266 22 9.625 21.3984 9.625 20.625C9.625 19.8516 10.2266 19.25 11 19.25C11.7734 19.25 12.375 19.8516 12.375 20.625ZM19.25 11C19.25 10.2266 19.8516 9.625 20.625 9.625C21.3984 9.625 22 10.2266 22 11C22 11.7734 21.3984 12.375 20.625 12.375C19.8516 12.375 19.25 11.7734 19.25 11ZM1.375 12.375C0.601562 12.375 0 11.7734 0 11C0 10.2266 0.601562 9.625 1.375 9.625C2.14844 9.625 2.75 10.2266 2.75 11C2.75 11.7734 2.14844 12.375 1.375 12.375ZM3.22266 18.7773C2.83594 18.4336 2.70703 17.918 2.79297 17.4453C2.92188 16.9297 3.30859 16.543 3.82422 16.4141C4.29688 16.2852 4.8125 16.457 5.15625 16.8438C5.54297 17.1875 5.71484 17.7031 5.58594 18.1758C5.45703 18.6914 5.07031 19.0781 4.55469 19.207C4.08203 19.293 3.56641 19.1641 3.22266 18.7773ZM16.8438 18.7773C16.457 18.4336 16.2852 17.918 16.4141 17.4453C16.543 16.9297 16.9297 16.543 17.4453 16.4141C17.918 16.2852 18.4336 16.457 18.7773 16.8438C19.1641 17.1875 19.293 17.7031 19.207 18.1758C19.0781 18.6914 18.6914 19.0781 18.1758 19.207C17.7031 19.293 17.1875 19.1641 16.8438 18.7773ZM3.22266 3.22266C3.56641 2.83594 4.08203 2.70703 4.55469 2.79297C5.07031 2.92188 5.45703 3.30859 5.58594 3.82422C5.71484 4.29688 5.54297 4.8125 5.15625 5.15625C4.8125 5.54297 4.29688 5.71484 3.82422 5.58594C3.30859 5.45703 2.92188 5.07031 2.79297 4.55469C2.70703 4.08203 2.83594 3.56641 3.22266 3.22266Z" fill="black"/>
</svg>
