<svg width="36" height="36" viewBox="0 0 36 36" fill="none" xmlns="http://www.w3.org/2000/svg">
<rect x="4" y="4" width="28" height="28" rx="7" stroke="white" stroke-width="2"/>
<path d="M10.454 8.82441H21.4503C22.4196 8.82441 23.283 9.03646 24.0403 9.46056C24.7976 9.88465 25.3883 10.4754 25.8124 11.2327C26.2365 11.99 26.4486 12.8533 26.4486 13.8227V13.9817C26.4486 14.9208 26.2138 15.7311 25.7443 16.4127C25.2747 17.0943 24.631 17.6017 23.8131 17.9349V18.1167C24.6462 18.4348 25.2899 18.9194 25.7443 19.5707C26.2138 20.2069 26.4486 20.9718 26.4486 21.8654V22.0244C26.4486 22.9787 26.2365 23.8344 25.8124 24.5917C25.3883 25.3491 24.7976 25.9398 24.0403 26.3639C23.283 26.788 22.4196 27 21.4503 27H10.454V8.82441ZM20.019 22.7287C20.2916 22.7287 20.5112 22.6454 20.6778 22.4788C20.8596 22.2971 20.9505 22.0699 20.9505 21.7972V20.843C20.9505 20.5704 20.8596 20.3508 20.6778 20.1842C20.5112 20.0024 20.2916 19.9115 20.019 19.9115H15.9067V22.7287H20.019ZM20.019 15.7539C20.2916 15.7539 20.5112 15.6705 20.6778 15.5039C20.8596 15.3222 20.9505 15.095 20.9505 14.8224V14.0499C20.9505 13.7773 20.8596 13.5576 20.6778 13.391C20.5112 13.2093 20.2916 13.1184 20.019 13.1184H15.9067V15.7539H20.019Z" fill="white"/>
</svg>
